<svg xmlns="http://www.w3.org/2000/svg" width="222.6" height="218.8" version="1.1"><g transform="translate(-314.39464,-274.3971)"><path d="m533 388.7c0-17-4.4-32.9-12.1-46.8 32.8-74.2-35.1-63.3-38.9-62.6-14.4 2.8-27.7 7.3-40 13.1-1.8-0.1-3.6-0.2-5.5-0.2-45.8 0-84.2 32-94 74.8 24.2-27.1 41.1-38 51.2-42.4-1.6 1.4-3.2 2.9-4.8 4.4-0.5 0.5-1 1-1.5 1.5-1 1-2 2-3 3-0.6 0.6-1.2 1.2-1.8 1.8-0.9 0.9-1.8 1.8-2.6 2.7-0.6 0.6-1.2 1.3-1.8 1.9-0.8 0.9-1.6 1.7-2.4 2.6-0.6 0.7-1.2 1.4-1.8 2-0.7 0.8-1.5 1.7-2.2 2.5-0.6 0.7-1.2 1.4-1.8 2.1-0.7 0.8-1.4 1.6-2.1 2.5-0.6 0.7-1.2 1.4-1.8 2.2-0.6 0.8-1.3 1.6-1.9 2.3-0.6 0.8-1.2 1.5-1.8 2.3-0.6 0.7-1.1 1.4-1.6 2.2-0.6 0.8-1.2 1.6-1.8 2.4-0.4 0.6-0.8 1.1-1.3 1.7-3.8 5.2-7.3 10.3-10.4 15.2 0 0 0 0 0 0-0.8 1.3-1.6 2.6-2.4 3.8 0 0.1-0.1 0.1-0.1 0.2-0.8 1.3-1.5 2.5-2.3 3.7 0 0-0.1 0.1-0.1 0.1-2 3.3-3.8 6.5-5.5 9.5-8.7 15.7-12.9 26.7-13.1 27.4-27.4 98.1 58.2 56.7 70.1 50.5 12.9 6.4 27.3 9.9 42.7 9.9 41.9 0 77.6-26.8 90.9-64.2h-50.7c-7.5 12.7-21.9 21.3-38.5 21.3-24.3 0-44-18.4-44-41.1h138c0.5-4.1 0.8-8.2 0.8-12.4zm-18-94.9c8.3 5.6 15 14.4 3.5 44.1-11-17.6-27.5-31.5-47.1-39.1 8.9-4.3 31-13.4 43.6-5zm-176.5 181.2c-6.8-6.9-8-23.8 7-54.6 7.5 21.7 22.6 39.8 42 51.3-9.7 5.3-35.3 17.3-49 3.3zm55.6-100.3c0.8-22.1 20-39.7 43.6-39.7 23.6 0 42.8 17.7 43.6 39.8h-87.2z" fill="#1ebbee"/></g></svg>